<svg width="24" height="24" viewBox="0 0 226 226" fill="none" xmlns="http://www.w3.org/2000/svg">
<path d="M39.3936 134.458C34.0776 123.211 31.4211 117.59 33.0058 111.256C33.2924 110.1 33.8419 108.644 34.3851 107.589C37.3341 101.817 43.764 99.2752 56.6303 94.1887C61.2231 92.373 63.5258 91.4626 65.4427 90.0385C65.8374 89.7376 66.2187 89.4251 66.5866 89.101C68.365 87.5215 69.6547 85.4979 72.2338 81.4653C82.4161 65.5253 87.5024 57.5608 94.9388 57.2067C96.3653 57.1425 97.844 57.275 99.2644 57.597C106.672 59.2679 111.556 68.0563 121.313 85.6235C124.925 92.1339 127.967 97.7322 129.536 100.878C131.104 104.025 133.728 109.796 136.725 116.542C144.81 134.77 148.853 143.891 145.276 149.905C144.585 151.057 143.72 152.106 142.706 153.021C137.422 157.695 127.372 155.715 107.267 151.749C102.179 150.747 99.6282 150.242 97.1199 150.357C96.6015 150.381 96.0852 150.424 95.5719 150.484C93.1001 150.795 90.8037 151.702 86.2045 153.521C73.3383 158.607 66.9083 161.149 60.1167 159.228C58.7474 158.835 57.4175 158.317 56.1471 157.683C49.8032 154.469 46.9074 148.95 41.1096 137.901C40.512 136.761 39.9418 135.617 39.3936 134.458Z" fill="url(#paint0_linear_2249_261)"/>
<path d="M183.361 64.2986L183.236 56.5518L188.627 50.8768L180.284 50.6309L173.917 45.3518L174.042 53.0987L168.652 58.7736L176.994 59.0196L183.361 64.2986ZM165.225 72.8861L152.49 62.3279L152.741 77.8216L141.959 89.1715L158.643 89.6633L171.378 100.222L171.127 84.7278L181.909 73.3779L165.225 72.8861ZM190.444 78.5088L190.57 86.2556L185.179 91.9306L193.521 92.1765L199.888 97.4556L199.763 89.7087L205.154 84.0338L196.812 83.7879L190.444 78.5088Z" fill="url(#paint1_linear_2249_261)"/>
<defs>
<linearGradient id="paint0_linear_2249_261" x1="60.755" y1="70.1243" x2="112.398" y2="203.903" gradientUnits="userSpaceOnUse">
<stop stop-color="#F6F5F3"/>
<stop offset="1" stop-color="#DBD1FF"/>
</linearGradient>
<linearGradient id="paint1_linear_2249_261" x1="156.439" y1="52.2615" x2="184.308" y2="124.238" gradientUnits="userSpaceOnUse">
<stop stop-color="#F6F5F3"/>
<stop offset="1" stop-color="#DBD1FF"/>
</linearGradient>
</defs>
</svg>
