<svg width="24" height="24" viewBox="0 0 174 116" fill="none" xmlns="http://www.w3.org/2000/svg">
<path d="M7.29053 90.0544C1.97456 78.8074 -0.681918 73.1869 0.902822 66.853C1.18934 65.6967 1.73889 64.241 2.28209 63.186C5.23106 57.4137 11.661 54.8718 24.5272 49.7853C29.12 47.9696 31.4228 47.0592 33.3397 45.635C33.7344 45.3341 34.1157 45.0216 34.4836 44.6975C36.262 43.1181 37.5517 41.0945 40.1308 37.0618C50.3131 21.1218 55.3993 13.1574 62.8358 12.8032C64.2623 12.739 65.7409 12.8715 67.1614 13.1936C74.5687 14.8644 79.4533 23.6528 89.2101 41.2201C92.8218 47.7305 95.8642 53.3288 97.4325 56.4751C99.0008 59.6214 101.625 65.3921 104.622 72.1385C112.707 90.3665 116.75 99.4878 113.172 105.501C112.482 106.653 111.617 107.702 110.603 108.618C105.319 113.292 95.2686 111.312 75.1639 107.345C70.0755 106.344 67.5251 105.838 65.0169 105.954C64.4985 105.978 63.9821 106.02 63.4689 106.08C60.9971 106.391 58.7007 107.299 54.1015 109.117C41.2352 114.204 34.8053 116.746 28.0137 114.824C26.6444 114.431 25.3145 113.914 24.0441 113.279C17.7002 110.065 14.8043 104.547 9.00659 93.4972C8.40895 92.3575 7.83882 91.2137 7.29053 90.0544Z" fill="url(#paint0_linear_0_1)"/>
<path d="M151.258 19.8952L151.133 12.1484L156.523 6.47343L148.181 6.22752L141.814 0.948428L141.939 8.69527L136.549 14.3702L144.891 14.6162L151.258 19.8952ZM133.122 28.4827L120.387 17.9245L120.638 33.4182L109.856 44.7681L126.54 45.26L139.275 55.8181L139.024 40.3244L149.806 28.9745L133.122 28.4827ZM158.341 34.1054L158.467 41.8522L153.076 47.5272L161.418 47.7731L167.785 53.0522L167.66 45.3053L173.051 39.6304L164.709 39.3845L158.341 34.1054Z" fill="url(#paint1_linear_0_1)"/>
<defs>
<linearGradient id="paint0_linear_0_1" x1="28.652" y1="25.7208" x2="80.2947" y2="159.5" gradientUnits="userSpaceOnUse">
<stop/>
<stop offset="1" stop-color="#3D3A45"/>
</linearGradient>
<linearGradient id="paint1_linear_0_1" x1="124.336" y1="7.85814" x2="152.205" y2="79.8349" gradientUnits="userSpaceOnUse">
<stop/>
<stop offset="1" stop-color="#3D3A45"/>
</linearGradient>
</defs>
</svg>
